<svg width="100" height="100" viewBox="0 0 100 100" fill="none" xmlns="http://www.w3.org/2000/svg">
<path d="M33.3333 37.5H66.6667M33.3333 54.1666H58.3333M75 16.6666C78.3152 16.6666 81.4946 17.9836 83.8388 20.3278C86.183 22.672 87.5 25.8514 87.5 29.1666V62.5C87.5 65.8152 86.183 68.9946 83.8388 71.3388C81.4946 73.683 78.3152 75 75 75H54.1667L33.3333 87.5V75H25C21.6848 75 18.5054 73.683 16.1612 71.3388C13.817 68.9946 12.5 65.8152 12.5 62.5V29.1666C12.5 25.8514 13.817 22.672 16.1612 20.3278C18.5054 17.9836 21.6848 16.6666 25 16.6666H75Z" stroke="#F3E5D7" stroke-width="5" stroke-linecap="round" stroke-linejoin="round"/>
</svg>
