<svg width="80" height="80" viewBox="0 0 80 80" fill="none" xmlns="http://www.w3.org/2000/svg">
<path d="M31.5786 30C31.5797 30 31.5808 30 31.5819 30M31.5819 30C31.7641 30 31.943 29.9998 32.1219 29.9633C35.2686 29.5366 37.2319 25.4766 36.5219 20.89C35.8453 16.5666 33.0319 13.3333 30.0819 13.3333C29.8986 13.3333 29.7186 13.3333 29.5386 13.37C26.3919 13.7966 24.4286 17.8566 25.1386 22.4433C25.8186 26.7533 28.6319 30 31.5819 30ZM48.9976 45C45.3309 38.3333 44.1943 36.6666 39.9976 36.6666C35.8009 36.6666 34.2109 39.1833 30.5443 45.8233C27.4043 51.5 21.0576 51.9733 19.4743 56.7933C19.1509 57.6766 18.9909 59.05 18.9976 60C18.9976 63.92 21.6209 66.6666 24.9976 66.6666C29.1943 66.6666 34.9976 63.3333 39.9976 63.3333C44.9976 63.3333 50.8009 66.6666 54.9976 66.6666C58.3743 66.6666 60.9976 63.9233 60.9976 60C60.9976 59.05 60.8343 57.6766 60.5109 56.7933C58.9276 51.9566 52.1376 50.6766 48.9976 45ZM67.2939 26.94C66.8657 26.759 66.4055 26.666 65.9406 26.6666H65.8906C63.4406 26.7066 60.6906 29.1666 59.2472 32.8866C57.5172 37.3366 58.3139 41.8866 61.0406 43.06C61.4706 43.2433 61.9306 43.3333 62.3939 43.3333C64.8572 43.3333 67.6439 40.86 69.0972 37.1133C70.8172 32.6633 70.0039 28.1133 67.2939 26.94ZM54.853 22.4433C55.5663 17.8567 53.603 13.7967 50.453 13.37C50.2741 13.3452 50.0936 13.333 49.913 13.3333C46.963 13.3333 44.153 16.5667 43.4796 20.89C42.7663 25.4767 44.7297 29.5367 47.8797 29.9633C48.0597 29.9867 48.2396 30 48.4196 30C51.3696 30 54.1863 26.7533 54.853 22.4433ZM18.9661 43.06C21.6861 41.8866 22.4794 37.33 20.7527 32.8866C19.2994 29.14 16.5161 26.6666 14.0561 26.6666C13.5894 26.6666 13.1327 26.7566 12.6994 26.94C9.97941 28.1133 9.18608 32.67 10.9127 37.1133C12.3661 40.86 15.1494 43.3333 17.6094 43.3333C18.0761 43.3333 18.5327 43.2433 18.9661 43.06Z" stroke="#89865E" stroke-width="3" stroke-linecap="round" stroke-linejoin="round"/>
</svg>
