<svg width="80" height="80" viewBox="0 0 80 80" fill="none" xmlns="http://www.w3.org/2000/svg">
<rect x="1.5" y="1.5" width="77" height="77" rx="8.5" fill="#EDD7BE"/>
<rect x="1.5" y="1.5" width="77" height="77" rx="8.5" stroke="#89865E" stroke-width="3"/>
<path d="M20 13.3333H16.6667C14.8986 13.3333 13.2029 14.0357 11.9526 15.286C10.7024 16.5362 10 18.2319 10 20V31.6667C10 36.529 11.9315 41.1921 15.3697 44.6303C18.8079 48.0685 23.471 50 28.3333 50C33.1956 50 37.8588 48.0685 41.297 44.6303C44.7351 41.1921 46.6667 36.529 46.6667 31.6667V20C46.6667 18.2319 45.9643 16.5362 44.714 15.286C43.4638 14.0357 41.7681 13.3333 40 13.3333H36.6667M26.6667 50C26.6667 52.6264 27.184 55.2272 28.1891 57.6537C29.1942 60.0802 30.6674 62.285 32.5245 64.1421C34.3817 65.9993 36.5865 67.4725 39.013 68.4776C41.4395 69.4827 44.0402 70 46.6667 70C49.2931 70 51.8938 69.4827 54.3203 68.4776C56.7468 67.4725 58.9516 65.9993 60.8088 64.1421C62.666 62.285 64.1392 60.0802 65.1443 57.6537C66.1494 55.2272 66.6667 52.6264 66.6667 50V40M66.6667 40C64.8986 40 63.2029 39.2976 61.9526 38.0474C60.7024 36.7971 60 35.1014 60 33.3333C60 31.5652 60.7024 29.8695 61.9526 28.6193C63.2029 27.369 64.8986 26.6667 66.6667 26.6667C68.4348 26.6667 70.1305 27.369 71.3807 28.6193C72.631 29.8695 73.3333 31.5652 73.3333 33.3333C73.3333 35.1014 72.631 36.7971 71.3807 38.0474C70.1305 39.2976 68.4348 40 66.6667 40ZM36.6667 10V16.6667M20 10V16.6667" stroke="#89865E" stroke-width="3" stroke-linecap="round" stroke-linejoin="round"/>
</svg>
